<?xml version="1.0" encoding="utf-8"?>
<!-- Generator: Adobe Illustrator 28.1.0, SVG Export Plug-In . SVG Version: 6.00 Build 0)  -->
<svg version="1.1" id="Layer_1" xmlns="http://www.w3.org/2000/svg" xmlns:xlink="http://www.w3.org/1999/xlink" x="0px" y="0px"
	 viewBox="0 0 169.1 97.2" style="enable-background:new 0 0 169.1 97.2;" xml:space="preserve">
<style type="text/css">
	.st0{fill:#C22133;}
	.st1{fill:#FFFFFF;}
</style>
<g>
	<g>
		<path class="st0" d="M51.1,12.4l-7.8,20.5h-3.1L30.7,8.4c-2.2-5.6-3.8-7.3-5.8-7.9V0h16.7v0.5c-2.6,0.6-2.6,2.4-0.8,7.1L46.2,22
			l4.2-11.2l-0.9-2.4C47,2.2,46,1.2,44.2,0.5V0h15.6v0.5c-2.4,0.6-2.1,2.2-0.8,5.6L65,21.8l2.9-8.4C70.7,5.1,69.1,1,65.2,0.5V0h12.5
			v0.5c-2.8,0.2-4.9,2.4-8.1,11.6l-7.4,20.8h-3.1L51.1,12.4z"/>
		<path class="st0" d="M103.2,32.4H74.6v-0.5c1.8-0.2,3.5-1,3.5-5V5.8c0-3.9-1.7-5.1-3.5-5.3V0h27.2l1.2,9h-0.8
			c-2.6-4-7.9-7.9-13-7.9H88v13.6h1.4c3.5,0,7-3.4,7.8-6.1h0.6v13.6h-0.6c-0.9-3.1-4.5-6.3-7.8-6.3H88v15.6h2.5
			c4.8,0,10.1-3.6,12.9-9.4h0.8L103.2,32.4z"/>
	</g>
	<g>
		<path class="st0" d="M115.8,32.4h-7l0.1-0.3c1.7-0.3,3.4-1.9,6.2-6.2l8.7-13.7h1.5l1.5,15.6c0.3,2.7,0.9,3.9,2.2,4.3l-0.1,0.3
			h-9.3l0.1-0.3c1.7-0.3,2.3-1.5,2.1-3.7l-0.2-2.3h-5.8c-2.3,3.9-1.9,5.6,0.2,6L115.8,32.4z M116.1,25.5h5.4l-0.6-7.6L116.1,25.5z"
			/>
		<path class="st0" d="M136.9,32.4h-9.3l0.1-0.3c1.1-0.1,2.3-0.7,2.9-3l3.2-13.5c0.5-2.3-0.4-2.9-1.5-3l0.1-0.3h9.6
			c4.4,0,6.7,2.2,6.7,5.1c0,2.7-2.1,5-5.4,6l2,5.3c0.9,2.3,1.8,3,2.9,3.4l-0.1,0.3h-6.7l-3-8.3h-1.5l-1.2,5c-0.5,2.3,0.3,2.9,1.3,3
			L136.9,32.4z M137,23.4h1.1c3.9,0,5.6-3.4,5.6-6.6c0-2.5-1.1-3.8-3-3.8h-1.1L137,23.4z"/>
		<path class="st0" d="M164.1,32.4h-16.9l0.1-0.3c1.1-0.1,2.3-0.6,2.9-2.9l3.3-13.6c0.5-2.3-0.4-2.9-1.5-3l0.1-0.3h15.7l-0.4,5.3
			h-0.4c-1.2-3.1-3.6-4.7-6.3-4.7h-1.5l-2,8.6h1.3c2.3,0,4.6-1.5,5.5-3.6h0.4l-1.8,8H162c0.1-2.1-1.5-3.7-3.8-3.7h-1.3l-2.3,9.7h1.8
			c2.7,0,7-2,9.2-5.7h0.5L164.1,32.4z"/>
	</g>
	<g>
		<path class="st1" d="M0,66.9v-0.6c2.3-0.2,4.6-1.4,4.6-6.1V32.6c0-4.7-2.3-5.9-4.6-6.1v-0.6h20c10.3,0,15.3,3.6,15.3,9.2
			c0,4.3-3.1,7.7-9.3,9c7.8,1.3,11.5,5.9,11.5,11.1c0,6.5-6,11.7-17.4,11.7H0z M15.4,44.1h1.4c4.9,0,7.5-3.2,7.5-8.4
			c0-4.9-2.3-8.6-7.4-8.6h-1.5V44.1z M17.3,65.7c6,0,9-3.2,9-10.3c0-6.6-3.3-10-9.2-10h-1.6v20.2H17.3z"/>
		<path class="st1" d="M54.4,66.9H37.9v-0.5c1.7-0.2,3.4-1.2,3.4-4.2V47.4c0-3.4-2-4.2-3.9-4.1v-0.6l13-3.6l0.5,0.2v6.6
			c1.8-5.1,5.5-7.5,8.3-7.5c2.7,0,4.3,1.9,4.3,4.2c0,2.5-1.8,4.3-4.2,4.3c-2.8,0-3.5-2.4-5.5-2.4c-1.5,0-2.2,1.4-2.8,3.8v14
			c0,3,1.7,4,3.4,4.2V66.9z"/>
		<path class="st1" d="M79.1,64c-2.5,2.5-5.7,4-8.7,4c-3.6,0-6.9-2.2-6.9-6.4c0-4.3,3.2-7.8,15.2-11v-5.2c0-4.1-0.8-5.5-2.5-5.5
			c-2.7,0-1.9,2.8-3,5.8c-0.9,2.5-2.7,3.4-4.4,3.4c-2.1,0-3.8-1.5-3.8-3.8c0-3.5,3.8-6.3,11.4-6.3c8.1,0,12,3.7,12,9.3v13.4
			c0,1.5,0.6,2.3,1.7,2.3c0.8,0,1.6-0.4,2.3-1.4l0.6,0.4c-1.8,3-4.7,4.8-8.2,4.8C81.9,67.9,79.9,66.6,79.1,64z M78.8,62.8
			c-0.1-0.6-0.2-1.3-0.2-2.1v-9.1c-5.2,2-6.2,5.2-6.2,7.8c0,3.1,1.6,4.5,3.6,4.5C76.9,63.9,77.8,63.6,78.8,62.8z"/>
		<path class="st1" d="M102.7,67.3l-9.5-20.8c-1.7-3.7-3.3-5.3-4.7-6v-0.5h17.1v0.5c-2.2,0.2-3.3,2.3-1.8,5.9l4.6,10.4l2.5-5.3
			c2.9-6.2,1.9-10.7-1.8-11v-0.5h11.3v0.5c-2.2,0.5-4,2.5-7.4,9.7L105,67.3H102.7z"/>
		<path class="st1" d="M131,68c-7.4,0-13.5-5.9-13.5-14c0-8.5,6.6-15,14.1-15c6.8,0,11.7,4.8,12,12.3h-16.8c0.4,7,3.8,10.7,8.5,10.7
			c3.1,0,5.9-1.6,7.4-4.5l0.6,0.2C141.8,64.1,137.1,68,131,68z M126.8,50.1h8c0.1-7.2-1.2-10-3.3-10
			C129.2,40.1,126.8,43.9,126.8,50.1z"/>
		<path class="st1" d="M160.9,63.4c0-2.4-2.5-3.8-5.5-5.3c-4.2-2.1-9.1-4.4-9.1-10.1c0-4.9,4.2-9,11.6-9c3.5,0,6.6,0.8,9.3,2.2
			l-2,7.3l-0.6-0.1c-1.4-5.1-4.5-8.2-7.9-8.2c-2.3,0-3.9,1.3-3.9,3.2c0,2.6,2.8,4,6,5.6c4.3,2.1,9.3,4.4,9.3,10c0,5.3-4.5,9-12.1,9
			c-3.9,0-8.2-0.9-10.4-2l2.3-8.3l0.7,0.1c0.9,5.6,4.3,9.2,8.2,9.2C159.3,66.9,160.9,65.4,160.9,63.4z"/>
	</g>
	<g>
		<path class="st0" d="M35.9,81.7c-0.2-3.7-2.5-6.8-5.3-6.8c-3.3,0-7.3,4.1-7.3,10.9c0,5.6,2.9,7.8,6.2,7.8c2.7,0,5-1.4,6.1-3.6
			l0.6,0.2c-1.8,4.5-5.6,6.9-10.1,6.9c-5.5,0-9.4-4.1-9.4-9.8c0-7.7,7.1-13.4,15.1-13.4c2.9,0,5.5,0.7,6.8,1.4l-2.2,6.5L35.9,81.7z"
			/>
		<path class="st0" d="M37.1,87.2c0-6.4,5.6-13.3,13.8-13.3C56.6,74,61,78.2,61,84.1c0,7.7-6.7,13.1-13.8,13.1
			C41.6,97.2,37.1,92.8,37.1,87.2z M54.2,81.6c0-5.2-1.8-6.8-3.4-6.8c-3.7,0-6.9,7.9-6.9,14.9c0,5.1,1.7,6.8,3.4,6.8
			C51.2,96.5,54.2,88.3,54.2,81.6z"/>
		<path class="st0" d="M79,88.7c-1.6,5.9-4.4,8.5-9.2,8.5c-6.9,0-8.9-4.3-7.6-9.7l2.2-9.2c0.7-2.7-0.5-3.3-1.7-3.4l0.1-0.3h11.4
			L74.2,75c-1.3,0.1-2.7,0.8-3.3,3.4l-2.6,10.9c-1,4.2,0.6,6.2,3.4,6.2c2.9,0,5.2-1.9,6.6-7.4l1.2-4.9c1.3-5,0.7-8.1-1.8-8.2
			l0.1-0.3h7.7L85.3,75c-2.3,0.1-3.6,3.1-4.7,7.4L79,88.7z"/>
		<path class="st0" d="M98.9,97l-10-18l-2.2,9.3c-1.2,4.9-0.2,7.7,2.4,7.9l-0.1,0.3h-8.8l0.1-0.3c2-0.1,3.9-1.9,5.5-8l1.9-7.6
			c0.7-2.8,0.1-5.6-2.6-5.7l0.1-0.3h9.2l7.3,12.7l1.2-5.1c1-4.5,0.7-6.9-2.2-7.3l0.1-0.3h8.2l-0.1,0.3c-2.3,0.2-4,3-5.1,7.4
			L100.1,97H98.9z"/>
		<path class="st0" d="M128.7,74.6l-0.8,7h-0.4l-0.6-1.8c-1.2-3.4-2.2-4.6-3.8-4.6h-0.7l-4.2,17.6c-0.7,2.7,0.4,3.2,1.7,3.3
			l-0.1,0.3h-11.4l0.1-0.3c1.3-0.1,2.7-0.6,3.3-3.3l4.3-17.6h-0.7c-2,0-3.9,1.2-6.6,5l-0.9,1.3h-0.5l2.2-7H128.7z"/>
		<path class="st0" d="M135.2,96.6h-10.8l0.1-0.3c1.3-0.1,2.5-0.8,3.1-3.4l3.5-14.3c0.7-2.6-0.4-3.4-1.6-3.5l0.1-0.3h11.1
			c4.9,0,7.4,2.6,7.4,5.6c0,2.9-2.3,5.3-5.6,6.5l2,5.6c0.8,2.4,1.9,3.4,3,3.9l-0.1,0.3h-8l-3.2-9h-1.1l-1.3,5.2
			c-0.6,2.6,0.3,3.3,1.3,3.4L135.2,96.6z M135.5,86.8h0.9c4.2,0,5.6-4.3,5.6-7.4c0-2.7-1.1-4.1-2.8-4.1h-1L135.5,86.8z"/>
		<path class="st0" d="M147.4,96.6l0.1-0.3c1.3-0.1,2.5-0.8,3.2-3.4l1.3-5.6l-2.4-8.9c-0.6-2.2-1.2-2.8-2-3.4l0.1-0.3h10.7l-0.1,0.3
			c-1.6,0.1-2.2,1.8-1.8,3.5l1.7,7.5l3.8-5.7c2.1-3.2,1.2-5.1-0.2-5.3l0.1-0.3h7.1L169,75c-1.1,0.1-3.7,1.7-6.2,5.5l-4.4,6.6
			l-1.4,5.7c-0.7,2.6,0.6,3.3,1.8,3.4l-0.1,0.3H147.4z"/>
	</g>
	<g>
		<path class="st0" d="M161.9,94.5h-0.8v-0.4h1.9v0.4h-0.8v2h-0.4V94.5z"/>
		<path class="st0" d="M163.6,94.2h0.4l0.7,1.1l0.7-1.1h0.4v2.4h-0.4v-1.7l-0.8,1.1h0l-0.7-1.1v1.7h-0.4V94.2z"/>
	</g>
</g>
</svg>
